<svg width="62" height="62" viewBox="0 0 62 62" fill="none" xmlns="http://www.w3.org/2000/svg">
<circle cx="31" cy="31" r="30.5" fill="#7DB149" stroke="black"/>
<path d="M45.5714 25.9H36.1V16.55C36.1 15.209 33.5553 14 32.2143 14H29.7857C28.4447 14 25.9 15.209 25.9 16.55V25.9H16.55C15.209 25.9 14 28.4447 14 29.7857V32.2143C14 33.5553 15.0875 36.1 16.4286 36.1H25.9V45.45C25.9 46.791 28.4447 48 29.7857 48H32.2143C33.5553 48 36.1 46.791 36.1 45.45V36.1H45.45C46.791 36.1 48 33.5553 48 32.2143V29.7857C48 28.4447 46.9125 25.9 45.5714 25.9Z" fill="#141413" fill-opacity="0.77"/>
</svg>
