<svg width="25" height="25" viewBox="0 0 25 25" fill="none" xmlns="http://www.w3.org/2000/svg">
<g clip-path="url(#clip0_59_143)">
<path d="M12.5 25C19.02 25 24.3056 19.7145 24.3056 13.1944C24.3056 6.67441 19.02 1.38889 12.5 1.38889C5.97999 1.38889 0.694458 6.67441 0.694458 13.1944C0.694458 19.7145 5.97999 25 12.5 25Z" fill="#F4900C"/>
<path d="M12.5 23.6111C19.02 23.6111 24.3056 18.3256 24.3056 11.8056C24.3056 5.28553 19.02 0 12.5 0C5.97999 0 0.694458 5.28553 0.694458 11.8056C0.694458 18.3256 5.97999 23.6111 12.5 23.6111Z" fill="#FFCC4D"/>
<path d="M12.5 22.2222C17.8694 22.2222 22.2222 17.8694 22.2222 12.5C22.2222 7.13056 17.8694 2.77777 12.5 2.77777C7.13056 2.77777 2.77777 7.13056 2.77777 12.5C2.77777 17.8694 7.13056 22.2222 12.5 22.2222Z" fill="#FFE8B6"/>
<path d="M12.5 21.5278C17.8694 21.5278 22.2222 17.175 22.2222 11.8056C22.2222 6.43613 17.8694 2.08334 12.5 2.08334C7.13056 2.08334 2.77777 6.43613 2.77777 11.8056C2.77777 17.175 7.13056 21.5278 12.5 21.5278Z" fill="#FFAC33"/>
<path d="M6.62708 7.53888C6.62708 7.16041 6.9986 7.00902 6.9986 7.00902L12.4694 4.43958L17.9924 7.00902C17.9924 7.00902 18.3729 7.09374 18.3729 7.54166V7.9868H6.62708V7.53888Z" fill="#FFE8B6"/>
<path d="M18.0063 8.9139C18.0063 8.50834 17.6556 8.17987 17.2236 8.17987H7.72848C7.29584 8.17987 6.99445 8.50834 6.99445 8.9139C6.99445 9.18959 7.13612 9.42709 7.36182 9.55279V10.0153H8.82987V9.64793H10.2979V10.0153H11.766V9.64793H13.234V10.0153H14.7021V9.64793H16.1701V10.0153H17.6389V9.53404C17.859 9.40348 18.0063 9.17501 18.0063 8.9139ZM19.107 16.6667C19.107 16.8127 19.0489 16.9528 18.9457 17.0561C18.8424 17.1594 18.7023 17.2174 18.5563 17.2174H6.44376C6.29771 17.2174 6.15764 17.1594 6.05436 17.0561C5.95109 16.9528 5.89307 16.8127 5.89307 16.6667C5.89307 16.5206 5.95109 16.3806 6.05436 16.2773C6.15764 16.174 6.29771 16.116 6.44376 16.116H18.557C18.8604 16.116 19.107 16.3625 19.107 16.6667Z" fill="#F4900C"/>
<path d="M18.3729 8.47222C18.3727 8.56959 18.334 8.66293 18.2651 8.73178C18.1963 8.80063 18.1029 8.8394 18.0055 8.83958H6.99374C6.90022 8.83383 6.81241 8.79262 6.74821 8.72436C6.68402 8.6561 6.64828 8.56592 6.64828 8.47222C6.64828 8.37852 6.68402 8.28834 6.74821 8.22008C6.81241 8.15182 6.90022 8.11061 6.99374 8.10486L18.0055 8.10694C18.0537 8.10676 18.1013 8.11607 18.1459 8.13433C18.1904 8.1526 18.2309 8.17947 18.265 8.2134C18.2991 8.24732 18.3262 8.28765 18.3447 8.33206C18.3632 8.37647 18.3728 8.4241 18.3729 8.47222ZM8.46249 8.89861H16.5382V9.72222H8.46249V8.89861Z" fill="#F4900C"/>
<path d="M8.82916 14.4646C8.82916 14.8701 8.60972 15.1986 8.33958 15.1986H7.85C7.57986 15.1986 7.36041 14.8701 7.36041 14.4646V8.89931C7.36041 8.49375 7.57986 8.16528 7.85 8.16528H8.33958C8.60972 8.16528 8.82916 8.49375 8.82916 8.89931V14.4646ZM17.6389 14.4646C17.6389 14.8701 17.4201 15.1986 17.1493 15.1986H16.6597C16.3896 15.1986 16.1701 14.8701 16.1701 14.4646V8.89931C16.1701 8.49375 16.3889 8.16528 16.6597 8.16528H17.1493C17.4194 8.16528 17.6389 8.49375 17.6389 8.89931V14.4646ZM11.766 14.4646C11.766 14.8701 11.5465 15.1986 11.2764 15.1986H10.7868C10.5167 15.1986 10.2972 14.8701 10.2972 14.4646V8.89931C10.2972 8.49375 10.5167 8.16528 10.7868 8.16528H11.2764C11.5465 8.16528 11.766 8.49375 11.766 8.89931V14.4646ZM14.7021 14.4646C14.7021 14.8701 14.4826 15.1986 14.2125 15.1986H13.7236C13.4535 15.1986 13.234 14.8701 13.234 14.4646V8.89931C13.234 8.49375 13.4535 8.16528 13.7236 8.16528H14.2125C14.4826 8.16528 14.7021 8.49375 14.7021 8.89931V14.4646Z" fill="#FFD983"/>
<path d="M18.0063 14.8313C18.0063 15.2368 17.6778 15.5653 17.2722 15.5653H7.72847C7.5338 15.5653 7.34709 15.488 7.20944 15.3503C7.07178 15.2126 6.99445 15.0259 6.99445 14.8313C6.99445 14.6366 7.07178 14.4499 7.20944 14.3122C7.34709 14.1746 7.5338 14.0972 7.72847 14.0972H17.2722C17.6771 14.0972 18.0063 14.4257 18.0063 14.8313Z" fill="#FFCC4D"/>
<path d="M18.7403 15.5653C18.7403 15.9708 18.4118 16.2993 18.0063 16.2993H6.99376C6.79909 16.2993 6.61238 16.222 6.47473 16.0843C6.33707 15.9466 6.25974 15.7599 6.25974 15.5653C6.25974 15.3706 6.33707 15.1839 6.47473 15.0462C6.61238 14.9086 6.79909 14.8312 6.99376 14.8312H18.0056C18.4111 14.8312 18.7403 15.1597 18.7403 15.5653Z" fill="#FFD983"/>
<path d="M19.107 16.116C19.107 16.262 19.0489 16.4021 18.9457 16.5054C18.8424 16.6086 18.7023 16.6667 18.5563 16.6667H6.44376C6.37144 16.6667 6.29983 16.6524 6.23302 16.6247C6.16621 16.5971 6.1055 16.5565 6.05436 16.5054C6.00322 16.4542 5.96266 16.3935 5.93499 16.3267C5.90731 16.2599 5.89307 16.1883 5.89307 16.116C5.89307 16.0437 5.90731 15.972 5.93499 15.9052C5.96266 15.8384 6.00322 15.7777 6.05436 15.7266C6.1055 15.6754 6.16621 15.6349 6.23302 15.6072C6.29983 15.5795 6.37144 15.5653 6.44376 15.5653H18.557C18.8604 15.5653 19.107 15.8118 19.107 16.116Z" fill="#FFD983"/>
<path d="M18.0063 8.53194C18.0063 8.12638 17.6556 7.79791 17.2236 7.79791H7.72847C7.29583 7.79791 6.99445 8.12638 6.99445 8.53194C6.99445 8.80763 7.13611 9.04514 7.36181 9.17083V9.63333H8.82986V9.26597H10.2979V9.63333H11.766V9.26597H13.234V9.63333H14.7021V9.26597H16.1701V9.63333H17.6389V9.15208C17.859 9.02152 18.0063 8.79305 18.0063 8.53194Z" fill="#FFCC4D"/>
<path d="M6.62708 7.96042C6.62708 7.58195 6.9986 7.43056 6.9986 7.43056L12.4694 4.86111L17.9924 7.43056C17.9924 7.43056 18.3729 7.51528 18.3729 7.9632V8.16528H6.62708V7.96042Z" fill="#FFD983"/>
<path d="M12.5 5.79376C12.5 5.79376 8.71181 7.57918 8.33403 7.74029C7.95556 7.90071 8.08195 8.1646 8.33472 8.1646H16.6472C17.0375 8.1646 16.9451 7.86668 16.6354 7.70557C16.3257 7.54515 12.5 5.79376 12.5 5.79376Z" fill="#FFAC33"/>
<path d="M18.3729 8.16457C18.3727 8.26195 18.334 8.35528 18.2651 8.42413C18.1963 8.49299 18.1029 8.53175 18.0055 8.53193H6.99374C6.90022 8.52618 6.81241 8.48497 6.74821 8.41671C6.68402 8.34845 6.64828 8.25827 6.64828 8.16457C6.64828 8.07087 6.68402 7.9807 6.74821 7.91243C6.81241 7.84417 6.90022 7.80296 6.99374 7.79721L18.0055 7.79929C18.0537 7.79911 18.1013 7.80842 18.1459 7.82669C18.1904 7.84495 18.2309 7.87182 18.265 7.90575C18.2991 7.93968 18.3262 7.98 18.3447 8.02441C18.3632 8.06882 18.3728 8.11645 18.3729 8.16457Z" fill="#FFD983"/>
</g>
<defs>
<clipPath id="clip0_59_143">
<rect width="25" height="25" rx="6" fill="white"/>
</clipPath>
</defs>
</svg>
