<svg width="42" height="42" viewBox="0 0 42 42" fill="none" xmlns="http://www.w3.org/2000/svg">
<circle cx="21" cy="21" r="21" fill="white"/>
<path d="M25.4784 25.0003C30.3343 24.9222 33.9573 21.327 33.9573 16.5214C33.9573 12.8732 32.7497 14.0809 31.5348 15.3102C30.3343 16.4963 27.901 18.944 27.901 18.944L23.0559 14.0989C23.0559 14.0989 25.5036 11.6656 26.6897 10.4651C27.919 9.25022 27.919 8.04254 25.4784 8.04254C20.6729 8.04254 17.0638 11.6656 16.9996 16.5214C17.0499 17.704 16.9996 20.1553 16.9996 20.1553C14.7161 22.453 11.7417 25.4275 9.73192 27.4229C6.18078 30.9884 11.0115 35.8191 14.577 32.268C16.5762 30.2544 19.5586 27.272 21.8446 25.0003C21.8446 25.0003 24.2959 24.95 25.4784 25.0003Z" fill="#37323E"/>
</svg>
