<svg width="30" height="30" viewBox="0 0 30 30" fill="none" xmlns="http://www.w3.org/2000/svg">
<path d="M15 2.01923C18.4687 2.01923 21.7284 3.36779 24.1803 5.81971C26.6322 8.27163 27.9808 11.5313 27.9808 15C27.9808 18.4687 26.6322 21.7284 24.1803 24.1803C21.7284 26.6322 18.4687 27.9808 15 27.9808C11.5313 27.9808 8.27163 26.6322 5.81971 24.1803C3.36779 21.7284 2.01923 18.4687 2.01923 15C2.01923 11.5313 3.36779 8.27163 5.81971 5.81971C8.27163 3.36779 11.5313 2.01923 15 2.01923ZM15 0C6.71394 0 0 6.71394 0 15C0 23.2861 6.71394 30 15 30C23.2861 30 30 23.2861 30 15C30 6.71394 23.2861 0 15 0Z" fill="#778F6B"/>
<path d="M22.7139 7.20913C20.6442 5.13942 17.8894 4 14.9615 4C12.0337 4 9.27885 5.13942 7.20913 7.20913C5.13942 9.27885 4 12.0337 4 14.9615C4 17.8894 5.13942 20.6442 7.20913 22.7139C9.27885 24.7837 12.0337 25.9231 14.9615 25.9231C17.8894 25.9231 20.6442 24.7837 22.7139 22.7139C24.7837 20.6442 25.9231 17.8894 25.9231 14.9615C25.9231 12.0337 24.7837 9.27885 22.7139 7.20913Z" fill="#778F6B"/>
</svg>
