<svg width="23" height="25" viewBox="0 0 23 25" fill="none" xmlns="http://www.w3.org/2000/svg">
<g clip-path="url(#clip0_1_23)">
<path d="M22.4892 21.6162L18.071 16.748C17.8716 16.5283 17.6013 16.4062 17.3177 16.4062H16.5953C17.8184 14.6826 18.5452 12.5146 18.5452 10.1562C18.5452 4.5459 14.4195 0 9.32766 0C4.23586 0 0.110138 4.5459 0.110138 10.1562C0.110138 15.7666 4.23586 20.3125 9.32766 20.3125C11.4681 20.3125 13.4357 19.5117 15 18.1641V18.96C15 19.2725 15.1108 19.5703 15.3102 19.79L19.7284 24.6582C20.145 25.1172 20.8185 25.1172 21.2307 24.6582L22.4848 23.2764C22.9013 22.8174 22.9013 22.0752 22.4892 21.6162ZM9.32766 16.4062C6.19459 16.4062 3.65534 13.6133 3.65534 10.1562C3.65534 6.7041 6.19016 3.90625 9.32766 3.90625C12.4607 3.90625 15 6.69922 15 10.1562C15 13.6084 12.4652 16.4062 9.32766 16.4062Z" fill="black"/>
</g>
<defs>
<clipPath id="clip0_1_23">
<rect x="0.110138" width="22.6893" height="25" rx="6" fill="white"/>
</clipPath>
</defs>
</svg>
