<svg width="94" height="94" viewBox="0 0 94 94" fill="none" xmlns="http://www.w3.org/2000/svg">
<circle cx="47" cy="47" r="47" fill="white"/>
<g clip-path="url(#clip0_33_1003)">
<path d="M43.5059 24.7566C44.1201 23.5684 43.6569 22.1083 42.4788 21.4941C41.3007 20.8799 39.8306 21.3431 39.2163 22.5212L29.8417 40.5556H21.2222C19.4399 40.5556 18 41.9955 18 43.7778C18 45.5601 19.4399 47 21.2222 47L26.4483 67.8941C27.1632 70.7639 29.741 72.7778 32.7014 72.7778H61.2986C64.259 72.7778 66.8368 70.7639 67.5517 67.8941L72.7778 47C74.5601 47 76 45.5601 76 43.7778C76 41.9955 74.5601 40.5556 72.7778 40.5556H64.1583L54.7837 22.5212C54.1694 21.3431 52.7094 20.8799 51.5212 21.4941C50.333 22.1083 49.8799 23.5684 50.4941 24.7566L58.7108 40.5556H35.2892L43.5059 24.7566ZM37.3333 51.8333V61.5C37.3333 62.3861 36.6083 63.1111 35.7222 63.1111C34.8361 63.1111 34.1111 62.3861 34.1111 61.5V51.8333C34.1111 50.9472 34.8361 50.2222 35.7222 50.2222C36.6083 50.2222 37.3333 50.9472 37.3333 51.8333ZM47 50.2222C47.8861 50.2222 48.6111 50.9472 48.6111 51.8333V61.5C48.6111 62.3861 47.8861 63.1111 47 63.1111C46.1139 63.1111 45.3889 62.3861 45.3889 61.5V51.8333C45.3889 50.9472 46.1139 50.2222 47 50.2222ZM59.8889 51.8333V61.5C59.8889 62.3861 59.1639 63.1111 58.2778 63.1111C57.3917 63.1111 56.6667 62.3861 56.6667 61.5V51.8333C56.6667 50.9472 57.3917 50.2222 58.2778 50.2222C59.1639 50.2222 59.8889 50.9472 59.8889 51.8333Z" fill="black"/>
</g>
<defs>
<clipPath id="clip0_33_1003">
<rect width="58" height="58" fill="white" transform="translate(18 18)"/>
</clipPath>
</defs>
</svg>
