<svg width="67" height="67" viewBox="0 0 67 67" fill="none" xmlns="http://www.w3.org/2000/svg">
<path d="M33.5 1.04688C15.5723 1.04688 1.04688 15.5723 1.04688 33.5C1.04688 51.4277 15.5723 65.9531 33.5 65.9531C51.4277 65.9531 65.9531 51.4277 65.9531 33.5C65.9531 15.5723 51.4277 1.04688 33.5 1.04688ZM33.5 13.6094C39.8598 13.6094 45.0156 18.7652 45.0156 25.125C45.0156 31.4848 39.8598 36.6406 33.5 36.6406C27.1402 36.6406 21.9844 31.4848 21.9844 25.125C21.9844 18.7652 27.1402 13.6094 33.5 13.6094ZM33.5 58.625C25.8186 58.625 18.9354 55.1441 14.3291 49.7004C16.7893 45.068 21.6049 41.875 27.2188 41.875C27.5328 41.875 27.8469 41.9273 28.1479 42.0189C29.849 42.5686 31.6287 42.9219 33.5 42.9219C35.3713 42.9219 37.1641 42.5686 38.8521 42.0189C39.1531 41.9273 39.4672 41.875 39.7812 41.875C45.3951 41.875 50.2107 45.068 52.6709 49.7004C48.0646 55.1441 41.1814 58.625 33.5 58.625Z" fill="#37323E"/>
</svg>
